<svg width="3441" height="2803" viewBox="0 0 3441 2803" fill="none" xmlns="http://www.w3.org/2000/svg">
<path d="M23.0068 2774.07C12.2028 2772.75 6.5269 2760.7 12.2972 2751.47L1719.95 20.491C1725.85 11.0577 1739.6 11.1033 1745.44 20.5756L3425.95 2748.27C3432.11 2758.27 3424.92 2771.14 3413.18 2771.14H2951.25C2946.19 2771.14 2941.47 2768.59 2938.7 2764.36L1745.05 942.472C1739.19 933.535 1726.14 933.411 1720.11 942.234L682.451 2462.11C673.722 2474.89 687.556 2490.95 701.377 2483.97C804.182 2432.09 1029.05 2317.99 1079.54 2287.26C1579.83 1982.7 2210.35 1389.82 2210.35 1389.82L2422.42 1196.66C2432.77 1187.23 2449.26 1195.88 2447.38 1209.76L2424.8 1376.83C2423.8 1384.27 2417.45 1389.82 2409.94 1389.82H2291.95C2281.62 1389.82 2274.38 1400.03 2277.79 1409.78L2300.1 1473.5C2300.47 1474.58 2300.98 1475.62 2301.59 1476.59L2374.95 1592.07C2379.99 1600.01 2391.01 1601.4 2397.87 1594.97L2448.58 1547.43C2451.36 1544.83 2455.03 1543.37 2458.84 1543.37H2517.04C2530.07 1543.37 2536.87 1558.69 2527.94 1568.18C2420.77 1682.24 1954.27 2165.43 1428.44 2509.95C1337.09 2569.81 1192.43 2654.7 1179.47 2662.3C1178.77 2662.7 1178.28 2662.94 1177.53 2663.23C1162.02 2669.19 970.52 2742.32 840.898 2771.14C560.424 2833.49 127.025 2786.74 23.0068 2774.07Z" fill="white"/>
<rect x="2995.69" y="1145.86" width="1140.59" height="315.281" rx="15" transform="rotate(138.021 2995.69 1145.86)" fill="white"/>
<path d="M3146.26 819.106C3155.83 819.2 3162.87 828.125 3160.73 837.46L3113.38 1043.78L3065.34 1230.44C3062.26 1242.44 3046.78 1245.73 3039.07 1236.03L2723.78 839.368C2715.93 829.485 2723.05 814.91 2735.67 815.035L3146.26 819.106Z" fill="white"/>
</svg>
