<svg width="151" height="122" viewBox="0 0 151 122" fill="none" xmlns="http://www.w3.org/2000/svg">
<path d="M51.2779 3.04321L18.5907 35.1911C16.9582 36.6002 15.9155 38.2552 15.9155 40.6231C15.9155 42.9802 16.9594 44.6411 18.5907 46.0611L51.2779 78.1981C51.4879 78.4163 51.6909 78.5033 51.8632 78.5033C52.1729 78.5033 52.3863 78.2173 52.3769 77.8809C52.3676 77.683 52.283 77.4553 52.0896 77.2586C44.4171 67.5677 38.8345 56.453 38.8345 40.7399C38.8345 25.0172 44.4171 13.6844 52.0896 3.98637C52.283 3.79211 52.3676 3.56803 52.3769 3.36526C52.3873 3.02177 52.1729 2.74399 51.8632 2.74399C51.6908 2.74064 51.4879 2.82629 51.2781 3.04321" fill="#E3000D"/>
<path d="M75.9881 0.32666C63.1892 0.32666 58.1884 18.7654 58.1884 40.7429C58.1884 62.7275 63.1892 80.9207 75.988 80.9207C83.6688 80.9207 90.2154 76.3482 90.2365 72.5902C90.2398 71.7675 89.9281 70.9793 89.2489 70.2915C85.6085 66.7157 84.1847 63.1425 84.1743 59.9888C84.1508 53.9689 89.2876 49.4848 94.0234 49.4848C100.534 49.4848 104.373 54.6866 104.373 61.4232C104.373 67.8067 101.698 73.123 98.7874 77.3808C98.6725 77.5548 98.6209 77.7492 98.6209 77.9196C98.6232 78.2535 98.8167 78.5278 99.1064 78.5278C99.2822 78.5278 99.4887 78.4324 99.7139 78.2022L132.409 46.0653C134.042 44.6464 135.085 42.9844 135.085 40.6272C135.085 38.2605 134.041 36.6044 132.409 35.1951L99.7139 3.04751C99.4899 2.81978 99.2834 2.72319 99.1064 2.72319C98.8143 2.72319 98.6231 2.99975 98.6209 3.33472C98.6209 3.50662 98.6725 3.69844 98.7874 3.8749C101.697 8.12671 104.373 13.449 104.373 19.8278C104.373 26.5595 100.534 31.7661 94.0234 31.7661C89.2876 31.7661 84.1508 27.2855 84.1743 21.2644C84.1847 18.1109 85.6085 14.5339 89.249 10.9618C89.9281 10.2704 90.2399 9.48926 90.2365 8.66552C90.2154 4.90142 83.6688 0.32666 75.9881 0.32666Z" fill="#004E9F"/>
<path d="M31.1362 112.87C29.1965 112.87 27.7797 113.864 27.7797 115.767C27.7797 117.549 29.0112 118.792 30.8595 118.792C32.0921 118.792 33.3246 118.095 34.094 117.1V114.561C34.094 113.715 33.0152 112.87 31.1362 112.87ZM73.0642 112.518C73.1554 115.859 75.2512 118.275 78.8554 118.275C81.0438 118.275 82.708 117.07 83.2921 116.313C83.5689 116.525 83.848 116.842 83.848 117.58C83.848 119.242 81.8753 121.541 77.2849 121.541C72.6652 121.541 68.9041 117.796 68.9041 112.901C68.9041 107.51 72.3862 103.658 77.5324 103.658C82.2107 103.658 84.3699 107.161 84.3699 110.144C84.3699 111.024 84.1845 111.838 83.814 112.518H73.0642ZM79.5965 110.359C80.3354 110.359 80.3671 109.919 80.3671 109.33C80.3354 107.572 78.9773 105.945 76.9155 105.945C74.2355 105.945 73.1872 108.228 73.0957 110.359H79.5965ZM123.062 112.202C123.062 116.284 123.619 118.365 126.209 118.365C129.037 118.365 129.811 115.797 129.811 113.463V109.01C129.811 107.481 129.098 106.887 127.468 107.066C126.791 105.346 129.037 104.252 130.305 104C130.702 103.938 131.073 103.876 131.416 103.876C133.2 103.876 133.885 105.008 133.885 106.698C133.885 107.32 133.825 108.452 133.825 113.138C133.825 115.119 133.793 116.165 133.793 116.493C133.793 118.036 134.496 118.822 136.125 118.642C136.792 120.364 134.56 121.181 133.286 121.421C132.896 121.48 132.541 121.541 132.247 121.541C130.554 121.541 130.21 120.424 129.869 118.823C129.63 119.123 129.409 119.369 128.949 119.819C127.84 120.876 126.393 121.511 124.758 121.511C122.97 121.511 121.461 120.814 120.505 119.669C119.028 117.887 119.028 115.589 119.028 112.234V109.011C119.028 107.482 118.318 106.888 116.687 107.067C116.009 105.347 118.259 104.253 119.521 104.002C119.921 103.939 120.289 103.877 120.63 103.877C122.415 103.877 123.094 105.009 123.094 106.7L123.062 112.202ZM115.27 112.552C115.27 107.256 111.666 103.657 106.674 103.657C102.055 103.657 97.9556 107.256 97.9556 112.552C97.9556 117.915 101.806 121.51 106.521 121.51C111.51 121.51 115.27 117.856 115.27 112.552M37.9455 117.219C37.9455 118.57 38.8064 119 40.317 119.213C40.2242 120.782 39.1453 121.39 37.8834 121.51C36.4655 121.631 35.0793 120.963 34.5256 119.458C33.8771 120.057 31.9677 121.57 29.4721 121.57C26.0534 121.57 23.4953 119.241 23.4953 116.07C23.4953 112.717 26.3606 110.731 30.3962 110.731C31.7849 110.731 33.2298 111.024 34.0928 111.478V109.233C34.0928 107.222 33.2298 105.945 30.9827 105.945C30.5194 105.945 29.5037 106.069 28.7015 106.379C28.7942 106.697 28.8575 107.037 28.8575 107.349C28.8575 108.577 28.0869 109.573 26.7933 109.573C25.6522 109.573 24.7891 108.638 24.7891 107.445C24.7891 105.252 27.5017 103.656 31.2605 103.656C34.2488 103.656 36.0679 104.376 37.0226 105.626C37.8834 106.727 37.9455 108.419 37.9455 110.861V117.219ZM110.865 112.81C110.865 116.879 109.138 119.091 106.706 119.091C104.549 119.091 102.454 116.88 102.454 112.054C102.454 108.294 103.994 105.946 106.521 105.946C109.015 105.945 110.865 108.548 110.865 112.81ZM50.1438 106.633C50.2366 107.701 51.1302 108.45 52.1763 108.45C53.5017 108.45 54.3027 107.255 54.3027 106.099C54.3027 104.469 53.0091 103.625 51.7143 103.625C50.2366 103.625 48.665 104.754 47.7724 106.442L47.7103 106.473C47.4335 104.973 46.7241 103.842 45.2451 103.842C44.9061 103.842 44.5367 103.906 44.1369 104.03C42.9042 104.406 41.0864 105.374 41.7654 107.095C43.4906 106.758 44.1063 107.348 44.1063 108.878V116.162C44.1063 117.608 43.9223 118.213 43.4285 118.638C42.9652 118.998 42.4738 119.147 42.1653 119.209C41.4569 120.778 42.8431 121.267 46.263 121.267C49.683 121.267 50.8534 120.779 50.145 119.209C49.8366 119.146 48.9746 118.997 48.5125 118.638C48.0187 118.213 47.8041 117.608 47.8041 116.162V111.768C47.8032 107.851 49.2197 106.821 50.1438 106.633ZM92.5349 104.093H96.9399C97.4642 105.375 96.7559 106.409 95.7695 106.504C95.4612 106.537 95.1221 106.537 94.8148 106.537C94.0127 106.537 93.2128 106.473 92.6581 106.473V116.163C92.6581 117.609 92.9044 118.215 93.397 118.639C93.8603 118.999 94.9391 119.148 95.2477 119.21C95.956 120.779 94.2906 121.268 90.8719 121.268C87.4531 121.268 86.0364 120.78 86.7436 119.21C87.0509 119.147 87.5458 118.998 88.0068 118.639C88.4992 118.215 88.6834 117.609 88.6834 116.163V106.407L86.0963 106.314C85.5719 105.035 86.2803 104.124 87.3278 104.124H88.6236V102.871C88.6236 100.334 89.0845 98.9235 89.7014 97.9839C90.6549 96.4804 92.2886 95.448 94.8441 95.448C98.08 95.448 100.698 96.9823 100.698 99.299C100.698 100.302 100.02 101.523 98.603 101.523C97.557 101.523 96.5706 100.614 96.5706 99.4887C96.5706 99.0165 96.7559 98.5157 97.001 98.2044C96.6327 97.7657 95.8622 97.5451 95.1221 97.5451C92.9958 97.5451 92.5349 99.1427 92.5349 101.147V104.093ZM64.1613 106.633C64.2541 107.701 65.1475 108.45 66.1948 108.45C67.5201 108.45 68.32 107.255 68.32 106.099C68.32 104.469 67.0264 103.625 65.7327 103.625C64.2539 103.625 62.6824 104.754 61.791 106.442L61.7277 106.473C61.4521 104.973 60.7425 103.842 59.2635 103.842C58.9258 103.842 58.5553 103.906 58.1553 104.03C56.9216 104.406 55.1037 105.374 55.7827 107.095C57.508 106.758 58.1224 107.348 58.1224 108.878V116.162C58.1224 117.608 57.9396 118.213 57.4458 118.638C56.9837 118.998 56.4923 119.147 56.1849 119.209C55.4755 120.778 56.8628 121.267 60.2805 121.267C63.6992 121.267 64.872 120.779 64.1625 119.209C63.8551 119.146 62.9931 118.997 62.5299 118.638C62.0373 118.213 61.8216 117.608 61.8216 116.162V111.768C61.8207 107.851 63.2371 106.821 64.1613 106.633ZM146.154 106.633C146.258 107.701 147.158 108.45 148.21 108.45C149.517 108.45 150.318 107.255 150.318 106.099C150.318 104.469 149.043 103.625 147.731 103.625C146.258 103.625 144.704 104.754 143.813 106.442L143.723 106.473C143.453 104.973 142.738 103.841 141.286 103.841C140.925 103.841 140.574 103.906 140.152 104.03C138.937 104.406 137.125 105.374 137.785 107.095C139.516 106.758 140.123 107.348 140.123 108.878V116.161C140.123 117.608 139.946 118.213 139.437 118.638C138.994 118.998 138.487 119.147 138.192 119.209C137.477 120.778 138.876 121.267 142.293 121.267C145.712 121.267 146.869 120.779 146.153 119.209C145.86 119.146 144.998 118.997 144.518 118.638C144.049 118.213 143.842 117.608 143.842 116.161V111.768C143.843 107.851 145.235 106.821 146.154 106.633ZM0.682007 109.089C0.682007 116.993 6.04047 121.673 11.8635 121.673C17.1012 121.673 20.7663 117.93 20.7663 114.813C20.7663 113.153 19.7507 111.947 18.4254 111.947C17.0697 111.947 15.9309 112.882 15.9309 114.488C15.9309 115.513 16.4845 116.086 16.8856 116.538C16.1759 117.931 14.6665 119.077 12.3244 119.077C8.44362 119.077 5.64064 114.967 5.64064 109.057C5.64064 103.139 8.31927 99.0044 12.2025 99.0044C14.5446 99.0044 16.0528 100.163 16.7623 101.543C16.3613 102.011 15.8076 102.575 15.8076 103.609C15.8076 105.207 16.9476 106.145 18.3034 106.145C19.6287 106.145 20.6431 104.928 20.6431 103.264C20.6431 100.162 16.9781 96.4053 11.7404 96.4053C5.91627 96.4044 0.682007 101.542 0.682007 109.089Z" fill="#004E9F"/>
</svg>
