<svg width="200" height="57" viewBox="0 0 200 57" fill="none" xmlns="http://www.w3.org/2000/svg">
<mask id="mask0_1914_3711" style="mask-type:luminance" maskUnits="userSpaceOnUse" x="0" y="0" width="200" height="57">
<path d="M0.0200195 0.783207H199.02V56.7832H0.0200195V0.783207Z" fill="white"/>
</mask>
<g mask="url(#mask0_1914_3711)">
<path d="M66.902 39.1133C66.7249 39.1133 65.4029 39.1133 65.2294 39.1039C56.1061 38.9816 55.0374 35.7758 55.0374 33.3474V32.7144C57.0282 33.5748 59.8225 34.2997 63.5998 34.351H65.1013C66.8364 34.351 72.1366 34.351 72.1366 30.7104C72.1366 27.8888 69.2212 27.4085 63.1438 26.6558C57.7143 25.9846 55.3944 24.0715 55.3944 20.2511C55.3944 13.9709 62.4214 11.1143 68.9482 11.1143C75.3625 11.1143 79.1904 13.1858 79.1904 16.6581V17.438C76.7167 16.4166 73.6392 15.8683 70.2733 15.8683C64.3079 15.8683 63.0502 17.8248 63.0502 19.4535C63.0502 21.9959 65.6753 22.3743 72.0114 23.2906C77.2943 24.0464 79.973 26.3996 79.973 30.2823C79.973 35.8088 75.0889 39.1133 66.902 39.1133Z" fill="#2E3031"/>
<path d="M178.766 26.3668C176.878 26.3668 171.11 26.3668 171.11 30.6514C171.11 32.554 172.164 34.8246 177.205 34.8246C180.547 34.8246 182.627 32.9392 182.627 29.9112V27.7373V26.3668H181.06H178.766ZM175.99 39.1196C171.63 39.1196 163.376 37.471 163.376 31.2331C163.376 27.3385 165.18 22.8657 179.191 22.8657H180.823H182.382V21.4947V20.2763C182.382 15.9426 177.049 15.9426 174.18 15.9426C169.534 15.9426 166.818 16.1815 164.586 17.438V16.5123C164.586 13.6166 168.359 11.1196 176.778 11.1196C182.976 11.1196 190.36 13.074 190.36 22.3969V26.8911C190.36 36.6002 187.406 39.1196 175.99 39.1196Z" fill="#2E3031"/>
<path d="M97.0376 26.3579C95.1469 26.3579 89.3788 26.3579 89.3788 30.6435C89.3788 32.5461 90.4338 34.8251 95.4717 34.8251C98.8234 34.8251 100.899 32.9345 100.899 29.9054V27.7341V26.3579H99.3348H97.0376ZM94.2635 39.1201C89.8979 39.1201 81.6389 37.471 81.6389 31.2263C81.6389 27.329 83.4378 22.8568 97.4667 22.8568H99.1005H100.656V21.4795V20.2679C100.656 15.9279 95.3191 15.9279 92.4527 15.9279C87.8052 15.9279 85.0901 16.1652 82.8507 17.4291V16.4992C82.8507 13.6003 86.6208 11.1018 95.0503 11.1018C101.248 11.1018 108.641 13.0625 108.641 22.3822V26.8853C108.641 36.6002 105.679 39.1201 94.2635 39.1201Z" fill="#2E3031"/>
<path d="M41.5957 26.3668C39.699 26.3668 33.9327 26.3668 33.9327 30.6514C33.9327 32.554 34.9907 34.8246 40.0257 34.8246C43.3731 34.8246 45.451 32.9392 45.451 29.9112V27.7373V26.3668H43.8899H41.5957ZM38.8145 39.1196C34.4543 39.1196 26.2078 37.471 26.2078 31.2331C26.2078 27.3385 28.0049 22.8657 42.0195 22.8657H43.6473H45.212V21.4947V20.2763C45.212 15.9405 39.8761 15.9405 37.0072 15.9405C32.3627 15.9405 29.6488 16.1815 27.41 17.438V16.5123C27.41 13.6155 31.1795 11.1196 39.6025 11.1196C45.7967 11.1196 53.1861 13.074 53.1861 22.3948V26.89C53.1861 36.6002 50.2296 39.1196 38.8145 39.1196Z" fill="#2E3031"/>
<path d="M155.432 39.1157C151.647 39.1157 145.296 37.9538 145.296 30.1676V7.56816C145.296 5.16792 147.107 3.45921 148.631 2.44674C150.18 1.41703 151.739 0.858784 153.282 0.783512V6.46161V11.0906H154.833H160.548V13.3085C160.548 14.9299 158.331 16.3135 156.518 16.3135H154.833H153.282V17.6808V29.4824C153.282 32.157 155.347 33.952 158.437 33.952C160.075 33.952 161.295 33.8777 162.347 33.6958V35.8457C162.347 37.8623 159.695 39.1157 155.432 39.1157Z" fill="#2E3031"/>
<path d="M18.1808 15.9932C20.5591 15.9932 22.7234 16.5336 24.5021 17.4196V16.6471C24.5021 13.6332 20.602 11.1023 15.6386 11.1023C6.11833 11.1023 0.0200195 16.7903 0.0200195 25.0976V25.2037C0.0200195 33.5224 6.84135 39.1138 16.3611 39.1138C21.3233 39.1138 25.2167 36.7444 25.2167 33.7273V33.5151C23.3433 34.0237 21.275 34.2657 18.9009 34.2657C12.287 34.2657 8.2719 30.8661 8.02513 25.1514C8.2719 19.4383 11.5669 15.9932 18.1808 15.9932Z" fill="#2E3031"/>
<path d="M142.828 23.2131C142.828 15.0757 137.69 11.1183 127.143 11.1183C117.088 11.1183 111.085 15.5425 111.085 22.9611V34.7512C111.085 37.833 112.92 39.0901 117.41 39.0901H119.81V22.8122C119.81 18.7152 122.432 15.197 126.826 15.197C134.088 15.197 134.088 21.3073 134.088 22.9611L134.065 39.1011H136.482C141.003 39.1011 142.853 37.833 142.853 34.7297L142.828 23.2131Z" fill="#2E3031"/>
<path d="M7.87479 54.9063C6.98308 55.7509 5.78798 56.189 4.48558 56.189C3.23743 56.189 2.09597 55.7823 1.24003 55.0312C0.0449219 53.9837 0.0449219 52.8892 0.0449219 50.5271C0.0449219 48.1655 0.0449219 47.0705 1.24003 46.0224C2.09597 45.2719 3.21955 44.8652 4.48558 44.8652C6.91155 44.8652 8.55251 46.2415 8.92684 48.1964H7.57139C7.21495 46.7893 6.07349 45.9289 4.48558 45.9289C3.64752 45.9289 2.84522 46.2263 2.29207 46.7265C1.48978 47.4463 1.40037 48.1964 1.40037 50.5271C1.40037 52.8573 1.48978 53.6241 2.29207 54.3433C2.84522 54.8441 3.64752 55.1253 4.48558 55.1253C5.41365 55.1253 6.30536 54.797 6.89367 54.1713C7.41105 53.6241 7.60716 53.0141 7.60716 52.1537V51.309H4.48558V50.261H8.9626V52.0283C8.9626 53.311 8.65921 54.1713 7.87479 54.9063Z" fill="#2E3031"/>
<path d="M17.3661 46.0223H13.9769V50.1051H17.3661C18.8461 50.1051 19.8988 49.4318 19.8988 48.0712C19.8988 46.7107 18.8461 46.0223 17.3661 46.0223ZM19.9167 56.0952L17.027 51.1526H13.9769V56.0952H12.6221V44.9591H17.4907C19.7027 44.9591 21.2542 46.132 21.2542 48.0561C21.2542 49.6822 20.1307 50.7459 18.4897 51.0428L21.504 56.0952H19.9167Z" fill="#2E3031"/>
<path d="M28.4629 46.6641L26.0732 52.545H30.8173L28.4629 46.6641ZM32.2264 56.0952L31.2095 53.5774H25.6626L24.6463 56.0952H23.2014L27.8745 44.9591H29.016L33.6706 56.0952H32.2264Z" fill="#2E3031"/>
<path d="M37.5796 46.0223V50.1202H43.1444V51.1839H37.5796V56.0952H36.2241V44.9591H44.1076V46.0223H37.5796Z" fill="#2E3031"/>
<path d="M47.0703 44.9591H48.4258V56.0952H47.0703V44.9591Z" fill="#2E3031"/>
<path d="M55.865 56.189C53.957 56.189 52.7083 55.7666 51.5132 54.7186L52.4407 53.9053C53.4933 54.8279 54.4738 55.1253 55.9008 55.1253C57.7557 55.1253 58.8972 54.359 58.8972 53.0611C58.8972 52.482 58.7011 51.9818 58.2904 51.6692C57.8809 51.3561 57.5596 51.262 56.6322 51.1371L55.1521 50.9337C54.1531 50.7931 53.3687 50.5114 52.8156 50.0891C52.1736 49.5883 51.8523 48.9004 51.8523 48.0092C51.8523 46.116 53.4039 44.8652 55.9187 44.8652C57.5418 44.8652 58.6117 45.2248 59.7001 46.0852L58.8263 46.8515C58.0407 46.2258 57.2026 45.8975 55.865 45.8975C54.1704 45.8975 53.1899 46.726 53.1899 47.9622C53.1899 48.5095 53.3687 48.9475 53.7609 49.2444C54.1531 49.5418 54.8124 49.7608 55.4728 49.8544L56.864 50.042C58.0591 50.1983 58.6474 50.4173 59.1821 50.824C59.8777 51.3404 60.2526 52.1067 60.2526 53.0292C60.2526 54.9847 58.505 56.189 55.865 56.189Z" fill="#2E3031"/>
<path d="M71.492 56.0952L67.6217 50.1673L64.9466 52.9831V56.0952H63.5906V44.9591H64.9466V51.3564L70.8673 44.9591H72.5261L68.5307 49.2604L73.0966 56.0952H71.492Z" fill="#2E3031"/>
<path d="M75.686 56.0952V44.9591H83.5695V46.0223H77.0415V49.9483H82.6063V51.012H77.0415V55.0315H83.5695V56.0952H75.686Z" fill="#2E3031"/>
<path d="M91.8308 56.0952V44.9591H93.1863V55.0315H99.6786V56.0952H91.8308Z" fill="#2E3031"/>
<path d="M108.974 47.0082L104.8 54.672C105.3 54.9532 105.888 55.1252 106.512 55.1252C107.35 55.1252 108.153 54.8283 108.706 54.3281C109.509 53.6083 109.58 52.8572 109.58 50.527C109.58 48.4942 109.526 47.6652 108.974 47.0082ZM106.512 45.9293C105.674 45.9293 104.871 46.2262 104.318 46.7265C103.516 47.4462 103.426 48.1963 103.426 50.527C103.426 52.5603 103.498 53.3893 104.051 54.0463L108.225 46.3825C107.725 46.1013 107.137 45.9293 106.512 45.9293ZM109.758 55.0316C108.902 55.7822 107.779 56.1889 106.512 56.1889C105.692 56.1889 104.925 56.0169 104.265 55.6881L103.676 56.7832H102.517L103.409 55.1571L103.267 55.0316C102.072 53.9841 102.072 52.8891 102.072 50.527C102.072 48.1654 102.072 47.0704 103.267 46.0224C104.122 45.2723 105.246 44.8651 106.512 44.8651C107.333 44.8651 108.082 45.0214 108.741 45.3502L109.348 44.2713H110.508L109.616 45.8975C109.67 45.9293 109.705 45.9759 109.758 46.0224C110.953 47.0704 110.953 48.1654 110.953 50.527C110.953 52.8891 110.953 53.9841 109.758 55.0316Z" fill="#2E3031"/>
<path d="M117.948 56.189C116.04 56.189 114.791 55.7666 113.596 54.7186L114.523 53.9053C115.576 54.8279 116.556 55.1253 117.983 55.1253C119.838 55.1253 120.98 54.359 120.98 53.0611C120.98 52.482 120.784 51.9818 120.373 51.6692C119.963 51.3561 119.642 51.262 118.715 51.1371L117.235 50.9337C116.236 50.7931 115.451 50.5114 114.898 50.0891C114.256 49.5883 113.935 48.9004 113.935 48.0092C113.935 46.116 115.486 44.8652 118.001 44.8652C119.624 44.8652 120.694 45.2248 121.783 46.0852L120.909 46.8515C120.123 46.2258 119.285 45.8975 117.948 45.8975C116.253 45.8975 115.272 46.726 115.272 47.9622C115.272 48.5095 115.451 48.9475 115.843 49.2444C116.236 49.5418 116.895 49.7608 117.555 49.8544L118.947 50.042C120.142 50.1983 120.73 50.4173 121.265 50.824C121.96 51.3404 122.335 52.1067 122.335 53.0292C122.335 54.9847 120.588 56.189 117.948 56.189Z" fill="#2E3031"/>
<path d="M133.77 56.0952L127.028 47.1644V56.0952H125.673V44.9591H126.957L133.699 53.8586V44.9591H135.054V56.0952H133.77Z" fill="#2E3031"/>
<path d="M139.231 44.9591H140.586V56.0952H139.231V44.9591Z" fill="#2E3031"/>
<path d="M152.859 56.0952L146.117 47.1644V56.0952H144.761V44.9591H146.045L152.787 53.8586V44.9591H154.143V56.0952H152.859Z" fill="#2E3031"/>
<path d="M165.668 54.9063C164.776 55.7509 163.581 56.189 162.279 56.189C161.031 56.189 159.889 55.7823 159.033 55.0312C157.838 53.9837 157.838 52.8892 157.838 50.5271C157.838 48.1655 157.838 47.0705 159.033 46.0224C159.889 45.2719 161.013 44.8652 162.279 44.8652C164.705 44.8652 166.346 46.2415 166.721 48.1964H165.365C165.008 46.7893 163.867 45.9289 162.279 45.9289C161.441 45.9289 160.638 46.2263 160.085 46.7265C159.283 47.4463 159.194 48.1964 159.194 50.5271C159.194 52.8573 159.283 53.6241 160.085 54.3433C160.638 54.8441 161.441 55.1253 162.279 55.1253C163.207 55.1253 164.099 54.797 164.687 54.1713C165.204 53.6241 165.4 53.0141 165.4 52.1537V51.309H162.279V50.261H166.756V52.0283C166.756 53.311 166.452 54.1713 165.668 54.9063Z" fill="#2E3031"/>
<path d="M170.415 56.0952V44.9591H178.298V46.0223H171.77V49.9483H177.335V51.012H171.77V55.0315H178.298V56.0952H170.415Z" fill="#2E3031"/>
<path d="M186.363 46.0223H182.974V50.1051H186.363C187.844 50.1051 188.896 49.4318 188.896 48.0712C188.896 46.7107 187.844 46.0223 186.363 46.0223ZM188.914 56.0952L186.024 51.1526H182.974V56.0952H181.619V44.9591H186.488C188.7 44.9591 190.251 46.132 190.251 48.0561C190.251 49.6822 189.128 50.7459 187.487 51.0428L190.501 56.0952H188.914Z" fill="#2E3031"/>
<path d="M195.764 12.9679H195.151V13.9302H195.764C196.118 13.9302 196.36 13.7185 196.36 13.4488C196.36 13.1802 196.118 12.9679 195.764 12.9679ZM196.36 15.6593L195.615 14.3954H195.151V15.6593H194.481V12.4703H195.849C196.536 12.4703 197.02 12.9193 197.02 13.4488C197.02 13.8978 196.704 14.1916 196.304 14.3139L197.113 15.6593H196.36ZM195.653 11.6628C194.147 11.6628 192.956 12.7233 192.956 14.0693C192.956 15.4147 194.147 16.4753 195.653 16.4753C197.16 16.4753 198.341 15.4147 198.341 14.0693C198.341 12.7233 197.16 11.6628 195.653 11.6628ZM195.653 17.0215C193.793 17.0215 192.286 15.7006 192.286 14.0693C192.286 12.4379 193.793 11.1165 195.653 11.1165C197.513 11.1165 199.02 12.4379 199.02 14.0693C199.02 15.7006 197.513 17.0215 195.653 17.0215Z" fill="#2E3031"/>
</g>
</svg>
