<svg width="16" height="17" viewBox="0 0 16 17" fill="none" xmlns="http://www.w3.org/2000/svg">
<path d="M1.45455 0.321289C0.650909 0.321289 0 0.972198 0 1.77583V11.9577C0 12.7613 0.650909 13.4122 1.45455 13.4122H6.54545H11.6364C12.44 13.4122 13.0909 12.7613 13.0909 11.9577V1.77583C13.0909 0.972198 12.4393 0.321289 11.6364 0.321289H1.45455ZM10.9091 3.23038C11.0951 3.23038 11.2811 3.30127 11.4233 3.44345C11.7077 3.72781 11.7077 4.18749 11.4233 4.47186L5.92472 9.97044C5.78799 10.1072 5.60324 10.1835 5.41051 10.1835C5.21778 10.1835 5.03231 10.1072 4.89631 9.97044L2.38494 7.45907C2.10058 7.17471 2.10058 6.71503 2.38494 6.43066C2.66931 6.1463 3.12899 6.1463 3.41335 6.43066L5.41051 8.42782L10.3949 3.44345C10.5371 3.30127 10.7231 3.23038 10.9091 3.23038ZM14.5455 3.23038V11.9577C14.5455 13.5642 13.2429 14.8667 11.6364 14.8667H2.90909C2.90909 15.6704 3.56 16.3213 4.36364 16.3213H14.5455C15.3491 16.3213 16 15.6704 16 14.8667V4.68493C16 3.88129 15.3484 3.23038 14.5455 3.23038Z" fill="#FFC52D"/>
</svg>
