<svg width="287" height="90" viewBox="0 0 287 90" fill="none" xmlns="http://www.w3.org/2000/svg">
<path fill-rule="evenodd" clip-rule="evenodd" d="M110.497 78.349C99.893 71.777 85.5272 70.6184 62.3088 76.8042C37.4724 82.3441 29.289 85.9531 18.4156 78.7352C14.254 75.2561 12.7791 69.5863 13.8545 61.343C16.5379 48.0725 23.5194 35.1882 35.8677 21.0155C42.8492 13.5412 49.2913 7.23226 57.7477 4.65206C64.1898 3.10728 63.6538 8.00132 62.8481 8.6472C62.0424 8.6472 60.5676 8.78037 59.4922 9.41959C58.6865 10.0621 56.2695 12.2495 56.1363 15.0894C55.87 19.3408 60.5642 18.4386 62.5785 16.0881C64.7258 13.3814 67.9486 8.23104 65.3984 3.46018C64.4595 1.78555 62.5785 0.630293 60.2979 0.240767C52.5141 -0.275271 45.2629 3.337 38.6576 7.23225C24.0254 17.0203 12.3497 30.5539 5.63784 45.2393C1.87576 54.1285 -1.60999 66.8863 3.62363 77.3202C7.61876 84.5348 15.8421 88.4001 25.77 87.6277C32.7515 86.8553 41.0713 84.6313 46.8443 83.3762C52.4808 82.0878 81.3423 72.556 90.8707 89.1691C90.8707 89.1691 93.9569 83.243 101.877 83.1098C108.319 82.5938 117.715 84.9143 124.563 89.8084C122.282 86.4591 115.84 81.6916 110.47 78.3423L110.497 78.349ZM65.2918 22.7267C59.7885 19.2476 48.9118 25.8229 40.3222 36.8995C32.2654 46.9539 28.9128 58.5464 32.6716 63.9565C38.1749 70.2688 48.5089 61.12 52.9402 56.2259L53.4729 55.58C56.426 52.4838 58.7065 48.755 60.9904 45.2726L63.1378 41.7935C64.3463 41.6603 65.9577 41.2775 67.6989 40.7947C67.5657 40.9279 61.1202 51.4884 61.7927 56.7753C61.9259 58.32 61.7927 64.2495 67.6989 66.0506C75.6226 67.2092 82.0614 61.4129 87.5647 56.1294L89.0396 54.7111L88.7732 55.9995C86.4927 63.7301 89.5789 65.2749 91.5931 65.9208C97.4992 67.5954 104.577 59.3488 104.577 59.3488C104.311 61.9256 103.772 64.1163 106.725 65.7909C109.408 66.6898 112.095 65.4047 114.242 63.9865C121.627 58.9926 127.666 51.0023 132.497 44.2771H129.41C129.41 44.2771 121.76 54.8409 116.759 57.1614C116.759 57.1614 115.953 57.5476 115.417 57.1614C114.745 56.6454 115.018 55.4868 115.417 54.7144L134.478 22.8865H125.488C125.488 22.8865 124.55 24.4313 124.413 24.5612C124.413 24.428 124.28 24.3048 124.147 24.175C118.51 16.7007 105.892 28.1701 96.3606 41.3108C92.6984 46.4645 88.0374 52.1309 83.21 56.2925C83.21 56.2925 76.0953 62.6048 73.0091 58.097C71.9337 56.166 72.2034 53.4593 72.8759 51.6548C76.365 41.8667 82.5408 32.9709 89.5223 27.6907C91.5365 26.2724 93.6839 25.7597 94.7559 26.4022C95.2125 26.7299 95.5237 27.2223 95.6238 27.7753C95.7238 28.3283 95.6048 28.8985 95.2919 29.3653C93.6806 29.3653 92.3389 29.8813 91.2968 30.9101C89.2826 32.9742 88.4769 35.0317 89.1494 36.9694C92.3722 41.3507 98.8143 32.588 98.5446 27.3045C98.4115 25.3735 97.3361 23.569 95.7247 22.6668C93.4442 21.3784 89.8186 21.7679 87.5347 22.8C84.4485 23.9586 79.4779 27.7939 76.6613 30.9167C72.9991 34.7787 66.7267 39.0335 64.849 38.5175C65.5215 36.8429 70.7552 26.6653 65.2485 22.8033L65.2918 22.7267ZM108.649 37.9315C110.394 35.611 115.494 29.2987 116.706 28.2666C121.034 24.7875 122.612 26.3357 122.745 27.3677L109.861 48.755C109.994 48.6219 108.519 50.686 108.519 50.686C106.641 53.5159 104.757 55.8397 101.541 57.511C101.141 57.6442 100.466 57.7674 99.9296 57.3779C99.2571 56.9917 99.1239 56.3791 99.1239 55.7032C99.3903 53.6391 101.674 46.9406 108.656 37.9249L108.649 37.9315ZM59.6554 41.9267C59.6554 41.9267 59.6554 42.1864 59.5222 42.1864L55.6269 48.3688C53.2099 51.3652 50.2568 55.1938 46.6379 57.0016C45.5625 57.3878 44.0877 57.6475 43.282 56.6154C41.6706 54.811 42.4763 52.2341 43.1488 50.0434L43.4151 49.4009C45.2929 44.2472 48.5156 39.736 51.472 35.4845H51.6052V35.6177C53.6194 39.0968 57.1085 40.6116 59.7952 41.4173V41.5505C59.7952 41.5505 59.7952 41.6836 59.662 41.9367L59.6554 41.9267ZM63.4174 34.7121L61.6729 38.5741C61.4066 38.7073 61.0004 38.7073 60.5975 38.5741L59.7919 38.4409C57.3748 37.6685 55.4638 36.1204 54.9577 34.3193C54.1521 30.7103 57.3748 27.8771 58.7198 26.845C60.1947 25.9461 62.2089 25.4268 63.3808 26.329C64.1865 27.2279 64.4562 28.3932 64.4562 29.5517C64.4562 31.0965 63.9235 33.0308 63.3808 34.7055L63.4174 34.7121ZM177.205 46.3047C176.4 44.5002 174.252 43.3083 172.105 43.4748C164.99 44.1207 158.012 49.7871 154.253 57.7774C152.324 61.9262 151.099 66.3671 150.628 70.918C152.908 68.471 157.34 64.346 162.573 62.162C162.573 62.162 163.246 57.0083 166.735 52.2408C168.077 50.3098 170.896 47.2469 173.85 48.1191C176.533 48.8915 175.594 55.9762 172.105 62.8079C169.422 67.8018 165.526 72.8623 161.501 76.2083C157.839 79.2046 152.645 82.6504 147.944 79.9437C145.125 78.2691 143.616 74.79 143.949 70.4086C145.291 57.7807 151.334 46.9605 159.923 34.7188C168.779 23.3793 178.447 11.6569 191.601 5.47106C194.285 4.05279 196.835 3.79644 198.986 4.57216C198.986 4.57216 186.667 11.1442 180.731 23.1262C179.253 26.2225 177.069 30.3408 179.253 33.9464C180.328 35.8774 182.339 36.0105 183.814 36.0105C191.062 34.3359 195.76 27.8938 199.518 21.9676C201.666 17.4565 203.68 13.0785 203.68 8.05126C203.68 7.53522 203.68 6.63299 203.547 6.12028C207.036 4.31581 214.15 7.40871 214.15 7.40871C219.654 9.21318 231.329 17.846 235.358 19.5206C237.236 17.33 240.458 14.1105 242.203 12.4293L239.653 10.8845C235.491 8.43745 231.063 6.24679 226.768 3.89299C216.97 -1.26074 209.05 0.543732 205.022 1.96201L201.935 2.96079C198.849 -0.261953 194.012 0.130903 190.393 0.896637C177.242 4.50558 165.157 13.3948 152.106 28.5962C142.441 40.5816 136.535 50.8858 133.449 61.0634C130.899 67.8884 130.226 77.9428 136.132 84.0354C141.233 89.0293 147.944 87.8974 152.645 86.0995C162.983 81.332 172.245 70.7682 176.806 58.7861C177.881 55.1772 179.087 50.1533 177.205 46.288V46.3047ZM200.83 8.55065C199.488 23.5324 187.406 32.3883 184.317 33.0308C182.572 33.417 179.483 32.6446 182.169 26.3323C186.331 17.8293 193.176 10.7413 200.693 7.00586C200.8 7.51358 200.848 8.03224 200.83 8.55065ZM272.742 10.4816C266.164 14.0906 259.425 16.2746 251.269 15.4755L244.69 23.0763C256.232 25.9062 268.448 19.727 275.159 13.6711C282.407 7.74496 286.033 0.270733 286.033 0.270733C286.033 0.270733 280.663 6.06368 272.742 10.4483V10.4816Z" fill="#E31E2A"/>
<path fill-rule="evenodd" clip-rule="evenodd" d="M149.523 22.8493H140.933L136.099 30.5799H144.689L149.523 22.8493ZM251.299 79.1574C250.36 79.8033 249.015 79.2906 249.554 77.869C250.763 74.3899 255.46 67.1754 255.46 67.1754L268.884 44.3698H259.722L258.244 46.6903C257.844 46.0444 256.632 44.4996 256.096 44.2433C253.816 42.825 250.593 43.4709 248.312 44.7593C238.514 50.2992 231.4 61.1227 225.763 69.6291C225.763 69.6291 219.724 79.0343 216.501 79.8067C213.951 79.9398 214.217 76.5839 214.217 75.8115C215.293 70.2716 217.573 64.9914 219.854 60.0973C224.688 57.0011 230.055 52.8828 235.022 48.2451C245.626 38.457 254.618 27.3705 255.996 24.9235C255.996 24.9235 254.521 25.1798 252.91 25.3097C244.72 36.2963 227.941 52.2369 222.847 54.5574C224.994 49.4037 239.626 24.5373 251.978 12.6851L253.992 10.8806C256.945 8.0507 260.168 5.08764 262.582 4.69479C262.848 4.56162 263.114 4.69479 263.387 5.21082C263.521 7.40149 262.715 9.07279 261.643 10.8806L260.301 13.5873C260.301 13.5873 262.315 13.2011 263.524 12.8149C264.999 10.1082 266.747 7.14514 266.074 3.53953C265.941 2.38094 264.999 1.60855 263.927 1.34886C260.165 0.702981 256.143 3.27984 252.92 5.47051H252.787C236.141 18.0985 222.048 36.0999 209.699 60.8697C208.761 61.5156 205.371 62.288 204.732 61.8685C205.941 59.4215 207.552 56.1987 208.221 52.7196C208.378 51.6956 208.468 50.6624 208.491 49.6267C208.491 47.5626 207.958 45.5051 205.941 44.0868C203.66 42.9282 200.707 43.4409 198.693 44.3432C189.97 47.8223 183.391 56.4551 178.694 63.6696C176.144 68.1808 173.593 72.945 172.788 78.6514C172.388 82.9029 173.32 85.7361 175.874 87.1544C178.557 88.4428 181.913 87.1544 183.258 86.5085C192.114 81.9973 198.427 72.9783 203.257 64.6018C203.524 64.6018 206.21 64.6018 208.225 64.0858C208.091 64.472 207.149 67.4351 207.149 67.4351C203.926 76.1977 202.588 82.1238 205.538 85.7294C209.699 90.6235 216.681 85.4731 222.317 78.738C221.109 86.8547 225.54 88.1432 228.896 87.494C232.658 86.4952 236.953 82.5999 238.964 80.5025C238.431 82.823 238.564 87.0745 242.05 87.5938C244.467 87.98 246.212 86.8214 248.359 85.6628C255.877 81.8009 264.739 68.6569 267.016 65.048H264.02C260.664 69.8155 256.502 76.1278 251.269 79.0909L251.299 79.1574ZM184.181 78.2585C183.648 77.4861 183.508 76.7138 183.508 75.938C183.375 71.044 188.878 62.2813 192.77 57.384C194.381 60.9929 198.14 63.0537 200.421 63.956C197.601 69.8821 188.102 82.5999 184.181 78.2585ZM201.899 61.3791C201.633 61.6354 197.065 60.0907 196.126 55.969C195.32 52.3601 197.871 49.6567 200.454 48.2384C201.393 47.466 203.004 47.0798 204.216 47.5959C205.291 48.2384 205.558 49.5269 205.558 50.8153C205.558 51.7142 205.558 52.4899 205.425 53.2623V53.5187C204.594 56.273 203.422 58.9125 201.936 61.3758L201.899 61.3791ZM239.213 76.5839L238.275 77.3563C237.066 78.3551 235.724 79.547 234.28 79.0309C233.747 78.8978 233.474 78.2585 233.474 77.8723C233.341 74.7761 234.816 71.9462 236.157 69.2395L236.557 68.4671C240.552 62.025 245.279 54.4242 252.128 49.1407C253.336 48.3683 254.545 47.5959 255.89 48.1419C256.156 48.5281 256.562 48.9143 256.562 49.4303C256.531 49.6646 256.438 49.8864 256.293 50.0729C254.415 53.0692 252.531 56.2587 250.789 59.2217C247.3 65.1478 243.675 71.3336 239.247 76.6139L239.213 76.5839Z" fill="#E31E2A"/>
</svg>
