<svg width="16" height="16" viewBox="0 0 16 16" fill="none" xmlns="http://www.w3.org/2000/svg">
<path d="M8 0C7.82574 1.13555e-05 7.65842 0.06825 7.53385 0.190104L0.261719 6.13802C0.253319 6.14434 0.245071 6.15085 0.236979 6.15755L0.21224 6.17839V6.17969C0.145375 6.24198 0.0920311 6.31735 0.0555202 6.40112C0.0190094 6.4849 0.000111383 6.57528 0 6.66667C0 6.84348 0.0702379 7.01305 0.195262 7.13807C0.320286 7.2631 0.489856 7.33333 0.666667 7.33333H1.33333V14.6667C1.33333 15.4033 1.93 16 2.66667 16H13.3333C14.07 16 14.6667 15.4033 14.6667 14.6667V7.33333H15.3333C15.5101 7.33333 15.6797 7.2631 15.8047 7.13807C15.9298 7.01305 16 6.84348 16 6.66667C16.0001 6.57506 15.9813 6.48443 15.9447 6.40042C15.9082 6.31641 15.8548 6.24083 15.7878 6.17839L15.7773 6.17057C15.7627 6.15732 15.7475 6.14472 15.7318 6.13281L14.6667 5.26172V2.66667C14.6667 2.29867 14.368 2 14 2H13.3333C12.9653 2 12.6667 2.29867 12.6667 2.66667V3.6263L8.45182 0.178385C8.32901 0.0642174 8.16768 0.000523556 8 0ZM10 8.66667H12.6667V14H10V8.66667Z" fill="white"/>
</svg>
