<svg width="275" height="124" viewBox="0 0 275 124" fill="none" xmlns="http://www.w3.org/2000/svg">
<path fill-rule="evenodd" clip-rule="evenodd" d="M111.833 0.229248H184.232V22.1463C170.988 11.7203 150.759 10.7871 150.759 10.7871C171.483 18.791 166.102 34.7685 166.102 34.7685C156.097 63.4061 101.413 66.244 92.1069 66.5205V58.6053C138.015 58.9451 148.953 38.6208 148.953 38.6208C159.86 18.7403 120.26 13.8608 120.26 13.8608C136.03 19.8105 130.455 31.8342 130.455 31.8342C123.064 47.2461 98.2301 50.543 92.1069 51.1263V43.0488C119.184 41.7098 119.55 30.627 119.55 30.627C121.434 19.2779 100.082 18.5196 100.082 18.5196C110.004 21.2941 107.114 28.7351 107.114 28.7351C105.002 34.3906 95.7217 36.81 92.1069 37.5506V20.0337C92.1069 9.14112 100.983 0.229248 111.833 0.229248ZM184.232 56.2974V68.4428C184.232 79.3354 175.358 88.2448 164.508 88.2448H92.1069V75.3892L92.3393 75.4045C154.381 80.2687 180.39 59.6984 184.232 56.2974Z" fill="#B5B7B8"/>
<mask id="mask0_1914_2719" style="mask-type:luminance" maskUnits="userSpaceOnUse" x="0" y="100" width="115" height="24">
<path d="M0.212158 100.269H114.025V123.771H0.212158V100.269Z" fill="white"/>
</mask>
<g mask="url(#mask0_1914_2719)">
<path fill-rule="evenodd" clip-rule="evenodd" d="M25.3864 114.886C25.3864 115.99 25.0126 116.542 24.2674 116.542H4.39505V116.672C4.39505 118.399 5.40547 119.502 7.42883 119.997C7.86836 120.101 8.50997 120.179 9.34862 120.238C10.1898 120.296 11.2634 120.321 12.5643 120.321C13.5469 120.321 14.0369 120.945 14.0369 122.185C14.0369 123.19 13.5469 123.689 12.5643 123.689C11.2255 123.689 10.1266 123.684 9.27284 123.664C8.42409 123.646 7.77237 123.613 7.33284 123.56C5.13266 123.334 3.51599 122.814 2.48284 122.003C1.00005 120.846 0.262451 119.489 0.262451 117.932V111.219C0.262451 109.109 1.4017 107.549 3.67261 106.538C5.23117 105.805 7.28737 105.434 9.85383 105.434H17.3157C19.4124 105.434 21.1503 105.784 22.5295 106.479C24.4367 107.369 25.3864 108.706 25.3864 110.491V114.886ZM21.4812 113.063V110.816C21.4812 109.446 18.7707 108.764 13.3524 108.764C10.1569 108.764 7.96687 108.881 6.78216 109.109C5.09982 109.426 4.26117 110.042 4.26117 110.971V113.063H21.4812ZM31.6914 122.19C31.6914 123.19 31.2014 123.689 30.2188 123.689C29.2412 123.689 28.6728 123.646 28.5112 123.56C27.9681 123.359 27.6952 122.898 27.6952 122.19V102.013C27.6952 101.019 28.1878 100.524 29.1705 100.524C30.095 100.524 30.6709 100.565 30.8957 100.641C31.4262 100.816 31.6914 101.278 31.6914 102.013V122.19ZM59.1116 114.886C59.1116 115.99 58.7352 116.542 57.9926 116.542H38.1202V116.672C38.1202 118.399 39.1281 119.502 41.154 119.997C41.5935 120.101 42.2326 120.179 43.0738 120.238C43.915 120.296 44.9885 120.321 46.2869 120.321C47.2695 120.321 47.7621 120.945 47.7621 122.185C47.7621 123.19 47.2695 123.689 46.2869 123.689C44.9481 123.689 43.8493 123.684 42.9955 123.664C42.1493 123.646 41.495 123.613 41.0555 123.56C38.8578 123.334 37.2412 122.814 36.2055 122.003C34.7252 120.846 33.9876 119.489 33.9876 117.932V111.219C33.9876 109.109 35.1269 107.549 37.3952 106.538C38.9538 105.805 41.01 105.434 43.579 105.434H51.0409C53.135 105.434 54.8754 105.784 56.2521 106.479C58.1618 107.369 59.1116 108.706 59.1116 110.491V114.886ZM55.2064 113.063V110.816C55.2064 109.446 52.4959 108.764 47.0776 108.764C43.8821 108.764 41.6895 108.881 40.5073 109.109C38.825 109.426 37.9838 110.042 37.9838 110.971V113.063H55.2064ZM75.1166 107.466C75.1166 108.46 74.619 108.952 73.6237 108.952H67.2909V122.19C67.2909 123.19 66.8009 123.689 65.8182 123.689C64.8407 123.689 64.2723 123.646 64.1106 123.56C63.5675 123.359 63.2947 122.898 63.2947 122.19V108.952C62.7643 108.952 62.3323 108.947 61.9963 108.927C61.6654 108.906 61.4255 108.881 61.284 108.856C60.6575 108.64 60.3393 108.115 60.3393 107.278C60.3393 106.439 60.6575 105.914 61.284 105.701C61.4255 105.673 61.6654 105.647 61.9963 105.627C62.3323 105.609 62.7643 105.602 63.2947 105.602V102.005C63.2947 101.019 63.7873 100.524 64.7699 100.524C65.7475 100.524 66.3159 100.57 66.4775 100.661C67.0206 100.849 67.2909 101.306 67.2909 102.013V105.602H73.6237C74.619 105.602 75.1166 106.226 75.1166 107.466ZM88.1737 107.354C88.1737 108.361 87.5776 108.861 86.3954 108.861C86.2261 108.861 85.9937 108.848 85.683 108.83C85.3723 108.81 85.1349 108.802 84.9732 108.802C81.9015 108.802 80.3682 109.568 80.3682 111.103V122.19C80.3682 122.923 80.0904 123.392 79.5346 123.58C79.3073 123.651 78.7263 123.689 77.7942 123.689C76.8444 123.689 76.372 123.185 76.372 122.17V111.103C76.372 108.719 77.5871 107.103 80.0247 106.251C81.5176 105.718 83.738 105.452 86.6783 105.452C87.6761 105.452 88.1737 106.089 88.1737 107.354ZM113.866 118.024C113.866 120.101 112.843 121.625 110.794 122.586C109.344 123.321 107.412 123.689 105 123.689H98.3511C96.1535 123.689 94.1604 123.314 92.3821 122.568C90.1844 121.579 89.0856 120.068 89.0856 118.024V111.31C89.0856 109.271 90.1768 107.724 92.3644 106.667C93.9684 105.855 95.9539 105.452 98.3334 105.452H105C110.911 105.452 113.866 107.395 113.866 111.27V118.024ZM109.812 118.024V111.004C109.812 109.555 108.167 108.835 104.883 108.835H98.384C97.174 108.835 96.0878 108.985 95.1254 109.289C93.7613 109.738 93.0818 110.408 93.0818 111.31V118.024C93.0818 118.881 93.7739 119.515 95.1633 119.918C96.0878 120.184 97.1689 120.321 98.4042 120.321H104.904C105.949 120.321 106.947 120.172 107.877 119.867C109.165 119.444 109.812 118.835 109.812 118.024Z" fill="#B5B7B8"/>
</g>
<mask id="mask1_1914_2719" style="mask-type:luminance" maskUnits="userSpaceOnUse" x="115" y="100" width="160" height="24">
<path d="M115.965 100.269H274.788V123.771H115.965V100.269Z" fill="white"/>
</mask>
<g mask="url(#mask1_1914_2719)">
<path fill-rule="evenodd" clip-rule="evenodd" d="M150.88 122.19C150.88 123.19 150.39 123.689 149.408 123.689C148.417 123.689 147.841 123.646 147.68 123.56C147.137 123.372 146.866 122.911 146.866 122.19V110.953C146.866 109.505 145.164 108.785 141.769 108.785H140.993C140.857 108.785 140.781 108.79 140.769 108.802C139.137 108.868 138.058 108.977 137.528 109.147C136.343 109.497 135.749 110.276 135.749 111.465V122.19C135.749 122.911 135.476 123.372 134.933 123.56C134.772 123.646 134.198 123.689 133.208 123.689C132.213 123.689 131.715 123.19 131.715 122.19V111.427C131.715 110.349 131.326 109.621 130.556 109.238C130.025 108.972 129.159 108.843 127.964 108.843H126.974C126.878 108.843 126.82 108.835 126.805 108.823C126.554 108.81 126.335 108.797 126.14 108.79C125.953 108.785 125.797 108.785 125.668 108.785C122.235 108.785 120.515 109.517 120.515 110.991V122.19C120.515 122.911 120.249 123.372 119.719 123.56C119.557 123.646 118.981 123.689 117.991 123.689C117.009 123.689 116.516 123.19 116.516 122.19V111.407C116.516 107.44 119.421 105.452 125.233 105.452C126.378 105.452 127.317 105.46 128.047 105.48C128.772 105.498 129.308 105.531 129.664 105.584C131.164 105.772 132.554 106.251 133.835 107.012C134.966 106.297 136.371 105.835 138.038 105.622C138.924 105.51 140.405 105.452 142.489 105.452C148.081 105.452 150.88 107.44 150.88 111.407V122.19ZM179.071 118.249C179.071 121.919 175.203 123.75 167.476 123.75C167.262 123.75 166.984 123.742 166.648 123.735C166.304 123.73 165.903 123.722 165.45 123.709C165.438 123.697 165.387 123.689 165.301 123.689H163.427C156.935 123.689 153.689 121.878 153.689 118.249V106.953C153.689 105.952 154.179 105.452 155.162 105.452C156.152 105.452 156.728 105.498 156.89 105.584C157.42 105.772 157.685 106.233 157.685 106.953V118.249C157.685 119.631 159.598 120.321 163.42 120.321H169.389C173.14 120.321 175.017 119.652 175.017 118.308V106.953C175.017 106.233 175.287 105.772 175.83 105.584C175.992 105.498 176.575 105.452 177.575 105.452C178.573 105.452 179.071 105.952 179.071 106.953V118.249ZM204.369 118.477C204.369 121.949 201.729 123.689 196.447 123.689H182.923C181.935 123.689 181.443 123.19 181.443 122.185C181.443 120.945 181.935 120.321 182.918 120.321H196.465C198.968 120.321 200.216 119.705 200.216 118.477V117.795C200.216 116.692 199.077 116.139 196.809 116.139H190.309C184.335 116.139 181.347 114.465 181.347 111.12V110.129C181.347 107.915 182.847 106.492 185.853 105.868C186.462 105.731 187.349 105.627 188.518 105.556C189.683 105.485 191.15 105.452 192.921 105.452C193.919 105.452 194.417 106.089 194.417 107.354C194.417 108.343 193.919 108.835 192.921 108.835H190.044C188.538 108.835 187.639 108.856 187.334 108.894C186.01 109.069 185.343 109.484 185.343 110.129V111.082C185.343 112.173 187.005 112.718 190.329 112.718H196.958C201.899 112.718 204.369 114.361 204.369 117.646V118.477ZM211.528 102.959C211.528 103.621 211.248 104.141 210.692 104.524C210.214 104.848 209.626 105.018 208.934 105.018C208.242 105.018 207.653 104.848 207.176 104.524C206.617 104.141 206.339 103.621 206.339 102.959C206.339 102.305 206.617 101.785 207.176 101.402C207.653 101.07 208.242 100.907 208.934 100.907C209.626 100.907 210.214 101.07 210.692 101.402C211.248 101.785 211.528 102.305 211.528 102.959ZM210.977 122.19C210.977 123.19 210.48 123.689 209.484 123.689C208.507 123.689 207.938 123.646 207.777 123.56C207.259 123.372 206.999 122.911 206.999 122.19V106.882C206.999 105.888 207.499 105.394 208.494 105.394C209.457 105.394 210.02 105.439 210.182 105.531C210.712 105.718 210.977 106.167 210.977 106.882V122.19ZM239.451 122.185C239.451 123.19 238.837 123.689 237.594 123.689H222.799C219.96 123.689 217.909 123.418 216.661 122.873C214.514 122.008 213.44 120.443 213.44 118.178V110.986C213.44 107.296 216.279 105.452 221.963 105.452H237.801C238.842 105.452 239.36 106.018 239.36 107.141C239.36 108.27 238.842 108.835 237.801 108.835H222.248C219.04 108.835 217.436 109.51 217.436 110.867V118.003C217.436 119.548 219.26 120.321 222.915 120.321H237.955C238.953 120.321 239.451 120.945 239.451 122.185ZM268.008 118.211C268.008 121.866 265.28 123.689 259.821 123.689H250.042C247.948 123.689 246.137 123.301 244.611 122.528C242.548 121.541 241.52 120.164 241.52 118.406V116.081C241.52 114.179 242.497 112.751 244.455 111.802C245.91 111.07 247.729 110.699 249.914 110.699H264.049C263.837 109.421 262.031 108.785 258.631 108.785C258.495 108.785 258.328 108.785 258.126 108.79C257.931 108.797 257.712 108.81 257.454 108.823C257.446 108.835 257.383 108.843 257.267 108.843H256.322C255.332 108.843 254.842 108.211 254.842 106.959C254.842 105.952 255.332 105.452 256.322 105.452C259.518 105.452 261.96 105.673 263.648 106.122C266.553 106.941 268.008 108.589 268.008 111.062V118.211ZM264.09 117.263C264.09 117.08 264.09 116.859 264.082 116.593C264.075 116.327 264.062 116.023 264.049 115.665C264.037 115.307 264.029 114.998 264.024 114.732C264.017 114.465 264.011 114.245 264.011 114.07H249.815C248.982 114.07 248.123 114.217 247.244 114.524C246.092 114.919 245.516 115.432 245.516 116.061V118.366C245.516 119.035 246.112 119.548 247.294 119.905C248.057 120.184 248.931 120.321 249.934 120.321H259.859C261.354 120.321 262.375 120.179 262.93 119.885C263.701 119.489 264.087 118.62 264.087 117.263H264.09ZM274.843 122.19C274.843 123.19 274.351 123.689 273.368 123.689C272.393 123.689 271.822 123.646 271.66 123.56C271.117 123.36 270.847 122.898 270.847 122.19V102.013C270.847 101.019 271.337 100.524 272.32 100.524C273.247 100.524 273.82 100.565 274.047 100.641C274.578 100.816 274.843 101.278 274.843 102.013V122.19Z" fill="#E2001C"/>
</g>
</svg>
