<svg width="24" height="24" viewBox="0 0 24 24" fill="none" xmlns="http://www.w3.org/2000/svg">
<path d="M16.8 3.2C16.1635 3.2 15.553 3.45286 15.103 3.90294C14.6529 4.35303 14.4 4.96348 14.4 5.6C14.4 6.23652 14.6529 6.84697 15.103 7.29706C15.553 7.74714 16.1635 8 16.8 8C17.4365 8 18.047 7.74714 18.4971 7.29706C18.9472 6.84697 19.2 6.23652 19.2 5.6C19.2 4.96348 18.9472 4.35303 18.4971 3.90294C18.047 3.45286 17.4365 3.2 16.8 3.2ZM10.8 4C10.2696 4 9.76087 4.21071 9.3858 4.58579C9.01073 4.96086 8.80001 5.46957 8.80001 6C8.80001 6.53043 9.01073 7.03914 9.3858 7.41421C9.76087 7.78929 10.2696 8 10.8 8C11.3304 8 11.8392 7.78929 12.2142 7.41421C12.5893 7.03914 12.8 6.53043 12.8 6C12.8 5.46957 12.5893 4.96086 12.2142 4.58579C11.8392 4.21071 11.3304 4 10.8 4ZM5.60001 4.8C5.17567 4.8 4.7687 4.96857 4.46864 5.26863C4.16858 5.56869 4.00001 5.97565 4.00001 6.4C4.00001 6.82435 4.16858 7.23131 4.46864 7.53137C4.7687 7.83143 5.17567 8 5.60001 8C6.02436 8 6.43132 7.83143 6.73138 7.53137C7.03144 7.23131 7.20001 6.82435 7.20001 6.4C7.20001 5.97565 7.03144 5.56869 6.73138 5.26863C6.43132 4.96857 6.02436 4.8 5.60001 4.8ZM5.60001 9.6C4.27441 9.6 3.20001 10.6744 3.20001 12V16.8C3.20001 17.2416 3.55841 17.6 4.00001 17.6H7.20001V18.4C7.20001 18.8416 7.55841 19.2 8.00001 19.2H12.8V20C12.8 20.4416 13.1584 20.8 13.6 20.8H20C20.4416 20.8 20.8 20.4416 20.8 20V14.4C20.8 12.1912 19.0088 10.4 16.8 10.4C15.7028 10.4 14.7103 10.8438 13.9875 11.5594C13.3893 10.4005 12.1939 9.6 10.8 9.6C9.57112 9.6 8.48867 10.2178 7.83907 11.1578C7.49719 10.2494 6.62809 9.6 5.60001 9.6Z" fill="white"/>
</svg>
