<svg width="12" height="19" viewBox="0 0 12 19" fill="none" xmlns="http://www.w3.org/2000/svg">
<g clip-path="url(#clip0_1741_1678)">
<path d="M6 0.850586C9.3137 0.850586 12 3.50263 12 6.77407C12 7.88091 11.6921 8.91661 11.1568 9.80292L10.4708 10.9759C10.4701 10.9772 10.4694 10.9785 10.4687 10.9797L6.7275 17.3771C6.40418 17.93 5.59582 17.93 5.2725 17.3771L1.53128 10.9797C1.53102 10.9793 1.53074 10.9788 1.53047 10.9784L0.847969 9.81125C0.30964 8.92313 0 7.88434 0 6.77407C0 3.50263 2.6863 0.850586 6 0.850586ZM6 3.33845C4.14432 3.33845 2.64 4.82359 2.64 6.6556C2.64 8.48762 4.14432 9.97276 6 9.97276C7.85568 9.97276 9.36 8.48762 9.36 6.6556C9.36 4.82359 7.85568 3.33845 6 3.33845Z" fill="#8F8F8F"/>
</g>
<defs>
<clipPath id="clip0_1741_1678">
<rect width="12" height="18" fill="white" transform="translate(0 0.321289)"/>
</clipPath>
</defs>
</svg>
