<svg width="26" height="23" viewBox="0 0 26 23" fill="none" xmlns="http://www.w3.org/2000/svg">
<path d="M15.6406 0C15.9822 0 16.2942 0.19428 16.4463 0.5L17.0166 1.64746C17.0646 1.74414 17.0945 1.84897 17.1055 1.95605H24C25.1044 1.95623 26 2.85159 26 3.95605V9.31836C25.9982 9.31869 25.9963 9.31992 25.9941 9.32031C25.9793 9.32303 25.9559 9.32678 25.9268 9.33203C25.8681 9.34261 25.781 9.3582 25.6689 9.37793C25.4439 9.41757 25.1158 9.47497 24.707 9.54297C23.8888 9.67907 22.7438 9.86053 21.4404 10.042C18.8309 10.4053 15.5921 10.7665 13.0527 10.7666C10.5136 10.7666 7.27468 10.4053 4.66504 10.042C3.36175 9.86055 2.21675 9.67908 1.39844 9.54297C0.989623 9.47497 0.661714 9.41759 0.436523 9.37793C0.324291 9.35816 0.236515 9.34263 0.177734 9.33203L0.0947266 9.31738C0.0931602 9.3171 0.0909452 9.31663 0.0898438 9.31641H0.0888672L0.0166016 9.70898L0.0175781 9.70996C0.0186872 9.71018 0.0208359 9.71064 0.0224609 9.71094C0.0263686 9.71163 0.0328708 9.71256 0.0400391 9.71387C0.0552459 9.71663 0.078398 9.72035 0.107422 9.72559C0.166715 9.73628 0.254537 9.75262 0.367188 9.77246C0.593498 9.81232 0.922892 9.86928 1.33301 9.9375C2.15389 10.074 3.30203 10.2555 4.60938 10.4375C6.31059 10.6743 8.28728 10.9089 10.168 11.0459C10.209 11.8124 10.8425 12.4219 11.6191 12.4219H14.4883C15.2646 12.4214 15.8965 11.8121 15.9375 11.0459C17.8178 10.9089 19.7942 10.6743 21.4951 10.4375C22.8027 10.2554 23.9516 10.074 24.7725 9.9375C25.1827 9.86926 25.5121 9.81231 25.7383 9.77246C25.8511 9.75259 25.9389 9.73626 25.998 9.72559L26 9.72461V20.3213C25.9997 21.4255 25.1043 22.3211 24 22.3213H2C0.895586 22.3213 0.000252136 21.4256 0 20.3213V3.95605C0 2.85149 0.895431 1.95605 2 1.95605H8.89355L8.89453 1.94434C8.9065 1.84162 8.93622 1.74056 8.98242 1.64746L9.55273 0.5C9.70459 0.194383 10.0172 0.000486085 10.3584 0H15.6406ZM9.94531 1.95605H16.0537L15.5781 1H10.4209L9.94531 1.95605Z" fill="#FFCC00"/>
</svg>
