<svg width="19" height="22" viewBox="0 0 19 22" fill="none" xmlns="http://www.w3.org/2000/svg">
<path d="M18.4756 5.6665V16.3335L9.23828 21.6665L0 16.3335V5.6665L9.23828 0.333496L18.4756 5.6665ZM0.900391 6.18506V15.814L9.2373 20.6274L17.5752 15.814V6.18506L9.2373 1.37158L0.900391 6.18506ZM11.9043 11.0005C13.3769 11.0005 14.5709 12.194 14.5713 13.6665V16.3335H3.9043V13.6665C3.90465 12.1941 5.0989 11.0007 6.57129 11.0005H11.9043ZM9.2373 3.88916C10.71 3.88916 11.9042 5.0835 11.9043 6.55615C11.9041 8.02876 10.71 9.22217 9.2373 9.22217C7.76497 9.22181 6.57146 8.02854 6.57129 6.55615C6.57141 5.08372 7.76493 3.88952 9.2373 3.88916Z" fill="white"/>
</svg>
