<svg width="18" height="18" viewBox="0 0 18 18" fill="none" xmlns="http://www.w3.org/2000/svg">
<path d="M11.25 11.9998V10.4997C11.5875 10.3324 12.5527 9.18338 12.654 8.2856C12.9195 8.26534 13.3365 8.02158 13.4595 7.05929C13.5255 6.54252 13.263 6.25226 13.104 6.16076C13.104 6.16076 13.5 5.40848 13.5 4.50019C13.5 2.67911 12.7852 1.12505 11.25 1.12505C11.25 1.12505 10.7168 0 9 0C5.8185 0 4.5 2.04084 4.5 4.50019C4.5 5.32822 4.896 6.16076 4.896 6.16076C4.737 6.25226 4.4745 6.54327 4.5405 7.05929C4.6635 8.02158 5.0805 8.26534 5.346 8.2856C5.44725 9.18338 6.4125 10.3324 6.75 10.4997V11.9998C6 14.2498 0 12.7498 0 18H18C18 12.7498 12 14.2498 11.25 11.9998Z" fill="white"/>
</svg>
