<svg width="16" height="14" viewBox="0 0 16 14" fill="none" xmlns="http://www.w3.org/2000/svg">
<path d="M0.0107422 6.28271C0.020096 6.28443 0.0339638 6.28732 0.0517578 6.29053C0.0882717 6.29711 0.142542 6.30663 0.211914 6.31885C0.351401 6.34342 0.554884 6.37837 0.807617 6.42041C1.31331 6.50452 2.02077 6.61687 2.82617 6.729C3.87701 6.8753 5.1 7.02073 6.26367 7.10498C6.32536 7.5391 6.69825 7.87354 7.14941 7.87354H8.91504C9.36604 7.87339 9.7381 7.53897 9.7998 7.10498C10.9638 7.02074 12.1871 6.87535 13.2383 6.729C14.0438 6.61685 14.7511 6.50453 15.2568 6.42041C15.5094 6.3784 15.7121 6.34341 15.8516 6.31885C15.9136 6.30791 15.9639 6.29891 16 6.29248V11.9644C15.9997 13.0686 15.1043 13.9642 14 13.9644H2C0.895601 13.9644 0.000274669 13.0687 0 11.9644V6.28076C0.00241127 6.2812 0.00637917 6.28192 0.0107422 6.28271ZM9.53027 0.0356445C9.87178 0.0359094 10.184 0.229739 10.3359 0.535645L10.6289 1.12451C10.6766 1.22066 10.7066 1.32475 10.7178 1.43115H14C15.1045 1.43126 16 2.32665 16 3.43115V5.90771L15.9961 5.88721H15.9922C15.99 5.88762 15.9866 5.8884 15.9824 5.88916C15.9733 5.89083 15.9592 5.89376 15.9414 5.89697C15.9053 5.90348 15.8513 5.91313 15.7822 5.92529C15.6439 5.94965 15.4425 5.98411 15.1914 6.02588C14.6884 6.10954 13.9847 6.22098 13.1836 6.33252C11.5783 6.55602 9.5893 6.77878 8.03223 6.77881C6.47516 6.7788 4.48619 6.55602 2.88086 6.33252C2.07969 6.22097 1.37608 6.10955 0.873047 6.02588C0.622005 5.98412 0.420573 5.94966 0.282227 5.92529C0.213242 5.91314 0.159123 5.90348 0.123047 5.89697C0.105179 5.89375 0.091192 5.89084 0.0820312 5.88916C0.0779299 5.88841 0.0745106 5.88763 0.0722656 5.88721C0.0712279 5.88702 0.0691253 5.88724 0.0683594 5.88721L0 6.2583V3.43115C3.47238e-07 2.32658 0.895431 1.43115 2 1.43115H5.2832L5.28418 1.42041C5.29615 1.31777 5.32592 1.21754 5.37207 1.12451L5.66504 0.535645C5.81711 0.22974 6.12906 0.0356542 6.4707 0.0356445H9.53027ZM6.33594 1.43115H9.66504L9.46777 1.03564H6.5332L6.33594 1.43115Z" fill="white"/>
</svg>
